<?xml version="1.0" standalone="no"?><!DOCTYPE svg PUBLIC "-//W3C//DTD SVG 1.1//EN" "http://www.w3.org/Graphics/SVG/1.1/DTD/svg11.dtd"><svg t="1665975003728" class="icon" viewBox="0 0 1024 1024" version="1.1" xmlns="http://www.w3.org/2000/svg" p-id="2835" xmlns:xlink="http://www.w3.org/1999/xlink" width="200" height="200"><path d="M512 288.74m-173.21 0a173.21 173.21 0 1 0 346.42 0 173.21 173.21 0 1 0-346.42 0Z" fill="#bfbfbf" p-id="2836" data-spm-anchor-id="a313x.7781069.0.i2" class="selected"></path><path d="M512 468.96c-99.37 0-180.21-80.84-180.21-180.21S412.63 108.53 512 108.53s180.21 80.84 180.21 180.21S611.37 468.96 512 468.96z m0-346.43c-91.65 0-166.21 74.56-166.21 166.21S420.35 454.96 512 454.96s166.21-74.56 166.21-166.21S603.65 122.53 512 122.53z" p-id="2837"></path><path d="M213.76 693.75a291 220 0 1 0 582 0 291 220 0 1 0-582 0Z" fill="#bfbfbf" p-id="2838" data-spm-anchor-id="a313x.7781069.0.i3" class="selected"></path><path d="M249.78 589.7c15.07-20.66 33.67-40.3 55.61-57.67" fill="#31D3FF" p-id="2839"></path><path d="M249.77 596.7a7.01 7.01 0 0 1-4.12-1.34c-3.12-2.28-3.81-6.66-1.53-9.78 16.02-21.95 35.17-41.82 56.92-59.03a6.996 6.996 0 0 1 9.83 1.14 6.996 6.996 0 0 1-1.14 9.83c-20.76 16.43-39.02 35.37-54.3 56.3a6.962 6.962 0 0 1-5.66 2.88z" p-id="2840"></path><path d="M348.11 503.7c44.57-24.48 98.76-39.95 161.65-39.95 176.07 0 311.22 149.21 311.22 254.07 0 104.86-85.79 190.65-190.65 190.65H393.68c-104.86 0-190.65-85.79-190.65-190.65 0-21.19 4.55-44.19 13.42-67.4" fill="#bfbfbf" p-id="2841" data-spm-anchor-id="a313x.7781069.0.i1" class=""></path><path d="M630.32 915.47H393.68c-52.58 0-102.16-20.62-139.6-58.05-37.44-37.44-58.05-87.01-58.05-139.6 0-22.28 4.67-45.8 13.89-69.9a7.004 7.004 0 0 1 9.04-4.04 7.004 7.004 0 0 1 4.04 9.04c-8.48 22.18-12.96 44.63-12.96 64.9 0 101.27 82.39 183.65 183.65 183.65h236.65c101.27 0 183.65-82.38 183.65-183.65 0-50.77-33.44-112.53-87.27-161.16-61.32-55.4-138.36-85.91-216.94-85.91-57.8 0-111.05 13.15-158.28 39.09-3.39 1.86-7.64 0.62-9.51-2.77-1.86-3.39-0.62-7.64 2.77-9.51 49.31-27.08 104.83-40.81 165.02-40.81 82.06 0 162.43 31.79 226.33 89.52C792.79 597.48 828 663.21 828 717.82c0 52.58-20.62 102.16-58.05 139.6-37.47 37.43-87.04 58.05-139.63 58.05z" p-id="2842"></path><path d="M512 774.75c-20.14 0-31-32.46-31-63s10.86-63 31-63c20.13 0 31 32.46 31 63s-10.86 63-31 63z m0-112c-6.77 0-17 19.54-17 49s10.23 49 17 49 17-19.54 17-49-10.23-49-17-49z" p-id="2843"></path><path d="M505 767.25h14v141.22h-14z" p-id="2844"></path></svg>